
<svg xmlns="http://www.w3.org/2000/svg">
  

      <symbol id="icon-show" viewBox="0 0 20 20">
        <path d="M7.19108442,11.5530255 C9.5177388,12.9401577 12.455954,12.4059897 14.1609488,10.4172187 C13.7846464,9.9773076 13.3396397,9.5983182 12.8413771,9.2958596 C10.5137971,7.88295635 7.5516958,8.4099523 5.83937666,10.4160705 C6.22427427,10.8640753 6.68033461,11.2485207 7.19108442,11.5530255 Z M4,10.4186009 L4.03751852,10.3567939 C5.3693407,8.1627846 7.71813508,6.96485394 10.111508,7.00078551 C11.3104788,7.01878559 12.5206368,7.34643 13.6197355,8.0136122 C14.5985226,8.6077621 15.4159958,9.4337266 16,10.4186009 C14.0244154,13.7322741 9.7366247,14.8170091 6.42295157,12.8414245 C5.43809797,12.2542629 4.61292295,11.4336963 4.02025505,10.4521464 L4,10.4186009 Z M10,13.1686009 C8.4812169,13.1686009 7.25,11.937384 7.25,10.4186009 C7.25,8.8998178 8.4812169,7.66860089 10,7.66860089 C11.5187831,7.66860089 12.75,8.8998178 12.75,10.4186009 C12.75,11.937384 11.5187831,13.1686009 10,13.1686009 Z M10,11.6686009 C10.6903559,11.6686009 11.25,11.1089568 11.25,10.4186009 C11.25,9.728245 10.6903559,9.1686009 10,9.1686009 C9.3096441,9.1686009 8.75,9.728245 8.75,10.4186009 C8.75,11.1089568 9.3096441,11.6686009 10,11.6686009 Z" id="Shape"></path>
      </symbol>
    

      <symbol id="icon-cross" viewBox="0 0 20 20">
        <path d="M11.2352814,9.73528141 L11.2352814,5.23528138 C11.2352814,4.82106782 10.8994949,4.48528138 10.4852814,4.48528138 C10.0710678,4.48528138 9.73528141,4.82106782 9.73528141,5.23528138 L9.73528141,5.23528138 L9.73528141,9.73528141 L5.23528138,9.73528141 C4.82106782,9.73528141 4.48528138,10.0710678 4.48528138,10.4852814 C4.48528138,10.8994949 4.82106782,11.2352814 5.23528138,11.2352814 L9.73528141,11.2352814 L9.73528141,15.7352814 C9.73528141,16.1494949 10.0710678,16.4852814 10.4852814,16.4852814 C10.8994949,16.4852814 11.2352814,16.1494949 11.2352814,15.7352814 L11.2352814,11.2352814 L15.7352814,11.2352814 C16.1494949,11.2352814 16.4852814,10.8994949 16.4852814,10.4852814 C16.4852814,10.0710678 16.1494949,9.73528141 15.7352814,9.73528141 L11.2352814,9.73528141 Z" id="Shape" transform="translate(10.485281, 10.485281) rotate(45.000000) translate(-10.485281, -10.485281) "></path>
      </symbol>
    
</svg>
